<?xml version="1.0" standalone="no"?>
<!DOCTYPE svg PUBLIC "-//W3C//DTD SVG 20010904//EN"
 "http://www.w3.org/TR/2001/REC-SVG-20010904/DTD/svg10.dtd">
<svg version="1.0" xmlns="http://www.w3.org/2000/svg"
 width="191.000000pt" height="76.000000pt" viewBox="0 0 191.000000 76.000000"
 preserveAspectRatio="xMidYMid meet">

<g transform="translate(0.000000,76.000000) scale(0.100000,-0.100000)"
fill="#000000" stroke="none">
<path d="M1093 726 c-44 -20 -66 -57 -58 -95 7 -34 36 -55 111 -80 36 -12 50
-22 52 -38 6 -40 -57 -41 -79 -2 -7 14 -21 19 -55 19 -42 0 -45 -1 -39 -22 13
-44 35 -67 72 -77 64 -18 129 -11 160 18 16 16 18 14 38 -24 22 -45 76 -85
112 -85 l24 0 -22 -30 c-31 -41 -31 -133 -1 -183 54 -85 198 -92 261 -11 l21
27 0 -42 0 -41 110 0 110 0 0 40 0 40 -65 0 -65 0 0 115 0 115 -45 0 -45 0 0
-42 -1 -43 -15 27 c-26 50 -97 74 -149 52 -48 -20 -123 -18 -164 4 -93 50 -93
198 0 276 103 88 227 86 286 -3 44 -65 27 -148 -45 -223 -20 -21 -31 -38 -25
-38 16 0 73 68 89 106 18 43 18 106 0 148 -34 82 -151 111 -252 61 -49 -24
-104 -79 -116 -117 -3 -7 -13 -4 -26 8 -12 10 -50 28 -85 39 -66 21 -84 47
-35 53 19 2 30 -3 38 -18 9 -17 19 -20 48 -18 31 3 37 7 37 27 0 52 -113 88
-182 57z m489 -443 c26 -23 25 -106 -2 -133 -26 -26 -50 -25 -78 0 -27 25 -30
94 -6 128 18 26 60 29 86 5z"/>
<path d="M70 580 l0 -150 50 0 50 0 0 60 c0 33 4 60 8 60 13 0 38 -31 61 -77
21 -43 22 -43 76 -43 l55 0 -21 43 c-12 23 -32 54 -46 68 -23 25 -23 27 -5 31
11 3 28 18 37 32 15 23 16 33 7 65 -16 51 -42 61 -167 61 l-105 0 0 -150z
m174 74 c9 -24 -12 -44 -45 -44 -26 0 -29 4 -29 30 0 27 3 30 34 30 22 0 36
-6 40 -16z"/>
<path d="M1483 623 c-28 -19 -32 -70 -5 -75 9 -3 28 -1 40 4 26 9 46 2 36 -14
-3 -5 -15 -8 -25 -5 -18 5 -47 -18 -36 -29 13 -13 58 -6 77 11 11 10 20 31 20
46 0 34 -30 46 -73 30 -17 -7 -27 -7 -27 -1 0 6 8 10 19 10 21 0 45 23 34 33
-11 11 -37 7 -60 -10z"/>
<path d="M1395 559 c-4 -5 5 -28 19 -49 31 -47 31 -50 7 -50 -24 0 -37 -18
-23 -32 16 -16 62 0 74 27 9 20 6 31 -18 69 -29 45 -47 56 -59 35z"/>
<path d="M146 370 c-54 -10 -90 -52 -82 -94 7 -39 41 -66 109 -86 44 -13 52
-19 52 -40 0 -37 -46 -40 -73 -6 -16 21 -29 26 -62 26 -41 0 -42 -1 -35 -27 3
-16 17 -39 30 -52 45 -46 202 -36 221 14 6 14 11 12 34 -10 37 -35 130 -46
178 -21 28 15 62 60 62 84 0 14 -74 34 -79 21 -2 -7 -12 -20 -22 -30 -44 -44
-93 -7 -93 71 0 26 6 55 13 64 18 22 60 20 85 -3 16 -15 29 -18 55 -13 45 10
48 24 14 62 -49 54 -166 59 -219 9 l-24 -23 -15 21 c-8 12 -30 24 -48 28 -17
4 -39 8 -47 9 -8 2 -33 0 -54 -4z m66 -70 c9 -14 24 -20 49 -20 33 0 36 -3 32
-21 -4 -12 -11 -18 -20 -15 -7 3 -38 13 -68 22 -50 14 -66 30 -48 47 13 14 43
6 55 -13z"/>
<path d="M1082 370 c-19 -4 -47 -20 -63 -36 l-29 -28 0 32 c0 32 0 32 -50 32
l-50 0 0 -55 0 -55 -50 0 -50 0 0 55 0 55 -50 0 -51 0 3 -152 3 -153 45 0 45
0 3 62 3 63 49 0 49 0 3 -62 3 -63 45 0 c44 0 45 1 48 33 l3 33 20 -25 c39
-50 161 -61 217 -19 57 42 77 132 44 206 -29 65 -106 96 -190 77z m90 -87 c26
-23 25 -106 -2 -133 -44 -44 -100 -9 -100 63 0 23 7 53 16 65 18 26 60 29 86
5z"/>
</g>
</svg>
